<svg aria-hidden="true" style="position:absolute;width:0;height:0" xmlns="http://www.w3.org/2000/svg" overflow="hidden">
<defs>
<symbol id="triangle" viewBox="0 0 16 18" fill="none"><path fill-rule="evenodd" clip-rule="evenodd" d="M14.6744 7.25119C16.0472 8.01295 16.0472 9.98705 14.6744 10.7488L2.77489 17.3518C1.44185 18.0914 -0.195505 17.1275 -0.195505 15.6029V2.39705C-0.195505 0.872535 1.44185 -0.0914478 2.77489 0.648247L14.6744 7.25119Z" fill="#02897A" /></symbol>
<symbol id="instagram" viewBox="0 0 24 24" fill="none"><path d="M17 2H7C4.23858 2 2 4.23858 2 7V17C2 19.7614 4.23858 22 7 22H17C19.7614 22 22 19.7614 22 17V7C22 4.23858 19.7614 2 17 2Z" stroke="#02897A" stroke-width="2" stroke-linecap="round" stroke-linejoin="round"/>
        <path d="M16 11.3698C16.1234 12.2021 15.9812 13.052 15.5937 13.7988C15.2062 14.5456 14.5931 15.1512 13.8416 15.5295C13.0901 15.9077 12.2384 16.0394 11.4077 15.9057C10.5771 15.7721 9.80971 15.3799 9.21479 14.785C8.61987 14.1901 8.22768 13.4227 8.09402 12.592C7.96035 11.7614 8.09202 10.9097 8.47028 10.1582C8.84854 9.40667 9.45414 8.79355 10.2009 8.40605C10.9477 8.01856 11.7977 7.8764 12.63 7.99981C13.4789 8.1257 14.2648 8.52128 14.8716 9.12812C15.4785 9.73496 15.8741 10.5209 16 11.3698Z" stroke="#02897A" stroke-width="2" stroke-linecap="round" stroke-linejoin="round"/>
        <path d="M17.5 6.5H17.51" stroke="#02897A" stroke-width="2" stroke-linecap="round" stroke-linejoin="round"/>
</symbol>
<symbol id="facebook" viewBox="0 0 24 24" fill="none"><path d="M18 2H15C13.6739 2 12.4021 2.52678 11.4645 3.46447C10.5268 4.40215 10 5.67392 10 7V10H7V14H10V22H14V14H17L18 10H14V7C14 6.73478 14.1054 6.48043 14.2929 6.29289C14.4804 6.10536 14.7348 6 15 6H18V2Z" stroke="#02897A" stroke-width="2" stroke-linecap="round" stroke-linejoin="round"/></symbol>
<symbol id="twitter" viewBox="0 0 24 24" fill="none"><path d="M23 3.01006C22.0424 3.68553 20.9821 4.20217 19.86 4.54006C19.2577 3.84757 18.4573 3.35675 17.567 3.13398C16.6767 2.91122 15.7395 2.96725 14.8821 3.29451C14.0247 3.62177 13.2884 4.20446 12.773 4.96377C12.2575 5.72309 11.9877 6.62239 12 7.54006V8.54006C10.2426 8.58562 8.50127 8.19587 6.93101 7.4055C5.36074 6.61513 4.01032 5.44869 3 4.01006C3 4.01006 -1 13.0101 8 17.0101C5.94053 18.408 3.48716 19.109 1 19.0101C10 24.0101 21 19.0101 21 7.51006C20.9991 7.23151 20.9723 6.95365 20.92 6.68006C21.9406 5.67355 22.6608 4.40277 23 3.01006V3.01006Z" stroke="#02897A" stroke-width="2" stroke-linecap="round" stroke-linejoin="round"/></symbol>
</defs>
</svg>